<mxfile host="app.diagrams.net" agent="Mozilla/5.0 (Windows NT 10.0; Win64; x64) AppleWebKit/537.36 (KHTML, like Gecko) Chrome/137.0.0.0 Safari/537.36 Edg/137.0.0.0" version="26.2.14">
  <diagram name="Page-1" id="rEyPldxTlcFiVWtAm4uS">
    <mxGraphModel dx="3672" dy="754" grid="1" gridSize="10" guides="1" tooltips="1" connect="1" arrows="1" fold="1" page="1" pageScale="1" pageWidth="827" pageHeight="1169" math="0" shadow="0">
      <root>
        <mxCell id="0" />
        <mxCell id="1" parent="0" />
        <mxCell id="m2thgicQ0JM51j_nxWP1-42" value="" style="rounded=1;whiteSpace=wrap;html=1;" vertex="1" parent="1">
          <mxGeometry x="-1659.48" y="495.58" width="448" height="180" as="geometry" />
        </mxCell>
        <mxCell id="xA-fxwkaHmTKi_L9O3ju-38" value="" style="rounded=1;whiteSpace=wrap;html=1;align=center;verticalAlign=middle;fontFamily=Helvetica;fontSize=12;fillColor=#f5f5f5;strokeColor=#666666;fontColor=#333333;" parent="1" vertex="1">
          <mxGeometry x="-1451.48" y="520.58" width="226" height="150" as="geometry" />
        </mxCell>
        <mxCell id="xA-fxwkaHmTKi_L9O3ju-57" value="" style="rounded=1;whiteSpace=wrap;html=1;align=center;verticalAlign=middle;fontFamily=Helvetica;fontSize=12;" parent="1" vertex="1">
          <mxGeometry x="-2169.17" y="712.83" width="429.17" height="210" as="geometry" />
        </mxCell>
        <mxCell id="xA-fxwkaHmTKi_L9O3ju-58" value="&lt;b style=&quot;&quot;&gt;&lt;font style=&quot;font-size: 19px;&quot;&gt;Scheduler&lt;/font&gt;&lt;/b&gt;" style="rounded=0;whiteSpace=wrap;html=1;strokeColor=none;align=center;verticalAlign=middle;fontFamily=Helvetica;fontSize=12;fontColor=default;fillColor=none;" parent="1" vertex="1">
          <mxGeometry x="-2170" y="704.58" width="440" height="60" as="geometry" />
        </mxCell>
        <mxCell id="xA-fxwkaHmTKi_L9O3ju-79" value="&lt;b style=&quot;&quot;&gt;&lt;font style=&quot;font-size: 18px;&quot;&gt;Interference&amp;nbsp;&lt;/font&gt;&lt;/b&gt;" style="rounded=0;whiteSpace=wrap;html=1;strokeColor=none;align=center;verticalAlign=middle;fontFamily=Helvetica;fontSize=12;fontColor=default;fillColor=none;" parent="1" vertex="1">
          <mxGeometry x="-1461.48" y="520.58" width="243" height="29.75" as="geometry" />
        </mxCell>
        <mxCell id="xA-fxwkaHmTKi_L9O3ju-1" value="" style="rounded=1;whiteSpace=wrap;html=1;fillStyle=auto;fillColor=#f5f5f5;strokeColor=#666666;fontColor=#333333;container=0;" parent="1" vertex="1">
          <mxGeometry x="-2170" y="494.29" width="220" height="180" as="geometry" />
        </mxCell>
        <mxCell id="xA-fxwkaHmTKi_L9O3ju-2" value="" style="endArrow=none;dashed=1;html=1;dashPattern=1 3;strokeWidth=2;rounded=0;" parent="1" edge="1">
          <mxGeometry width="50" height="50" relative="1" as="geometry">
            <mxPoint x="-2151.6099999999997" y="619.2900000000001" as="sourcePoint" />
            <mxPoint x="-1969.57" y="619.2900000000001" as="targetPoint" />
          </mxGeometry>
        </mxCell>
        <mxCell id="xA-fxwkaHmTKi_L9O3ju-3" value="" style="rounded=1;whiteSpace=wrap;html=1;fillColor=#d5e8d4;strokeColor=#82b366;strokeWidth=3;container=0;" parent="1" vertex="1">
          <mxGeometry x="-2113.268691588785" y="586.2900000000001" width="20" height="20" as="geometry" />
        </mxCell>
        <mxCell id="xA-fxwkaHmTKi_L9O3ju-4" value="" style="rounded=1;whiteSpace=wrap;html=1;fillColor=#d5e8d4;strokeColor=#82b366;strokeWidth=3;container=0;" parent="1" vertex="1">
          <mxGeometry x="-2074.523364485981" y="586.2900000000001" width="20" height="20" as="geometry" />
        </mxCell>
        <mxCell id="xA-fxwkaHmTKi_L9O3ju-5" value="" style="rounded=1;whiteSpace=wrap;html=1;fillColor=#d5e8d4;strokeColor=#82b366;strokeWidth=3;container=0;" parent="1" vertex="1">
          <mxGeometry x="-2033.8528037383176" y="586.2900000000001" width="20" height="20" as="geometry" />
        </mxCell>
        <mxCell id="xA-fxwkaHmTKi_L9O3ju-6" value="" style="rounded=1;whiteSpace=wrap;html=1;fillColor=#fff2cc;strokeColor=#d6b656;strokeWidth=3;container=0;" parent="1" vertex="1">
          <mxGeometry x="-1993.663551401869" y="586.2900000000001" width="20" height="20" as="geometry" />
        </mxCell>
        <mxCell id="xA-fxwkaHmTKi_L9O3ju-7" value="" style="rounded=1;whiteSpace=wrap;html=1;fillColor=#d5e8d4;strokeColor=#82b366;strokeWidth=3;container=0;" parent="1" vertex="1">
          <mxGeometry x="-2074.283364485981" y="624.2900000000001" width="20" height="20" as="geometry" />
        </mxCell>
        <mxCell id="xA-fxwkaHmTKi_L9O3ju-8" value="" style="rounded=1;whiteSpace=wrap;html=1;fillColor=#fff2cc;strokeColor=#d6b656;strokeWidth=3;container=0;" parent="1" vertex="1">
          <mxGeometry x="-1993.423551401869" y="624.2900000000001" width="20" height="20" as="geometry" />
        </mxCell>
        <mxCell id="xA-fxwkaHmTKi_L9O3ju-9" value="" style="rounded=1;whiteSpace=wrap;html=1;fillColor=#fff2cc;strokeColor=#d6b656;strokeWidth=3;container=0;" parent="1" vertex="1">
          <mxGeometry x="-2033.6128037383176" y="624.2900000000001" width="20" height="20" as="geometry" />
        </mxCell>
        <mxCell id="xA-fxwkaHmTKi_L9O3ju-10" value="&lt;div&gt;&lt;/div&gt;" style="sketch=0;outlineConnect=0;fontColor=#232F3E;gradientColor=none;fillColor=#232F3D;strokeColor=none;dashed=0;verticalLabelPosition=bottom;verticalAlign=top;align=center;html=1;fontSize=12;fontStyle=0;aspect=fixed;pointerEvents=1;shape=mxgraph.aws4.user;container=0;" parent="1" vertex="1">
          <mxGeometry x="-2155.598130841121" y="586.2900000000001" width="23.76" height="25" as="geometry" />
        </mxCell>
        <mxCell id="pxr-nG4pKd3Dx8W5PENf-27" value="&lt;span style=&quot;text-wrap-mode: wrap;&quot;&gt;&lt;font style=&quot;font-size: 14px;&quot;&gt;Guaranteed&lt;/font&gt;&lt;/span&gt;" style="text;html=1;align=center;verticalAlign=middle;resizable=0;points=[];autosize=1;strokeColor=none;fillColor=none;container=0;" parent="1" vertex="1">
          <mxGeometry x="-2146.321869158878" y="544.2900000000002" width="100" height="30" as="geometry" />
        </mxCell>
        <mxCell id="pxr-nG4pKd3Dx8W5PENf-28" value="" style="rounded=1;whiteSpace=wrap;html=1;fillColor=#fff2cc;strokeColor=#d6b656;strokeWidth=3;container=0;" parent="1" vertex="1">
          <mxGeometry x="-2052.5251401869155" y="549.2900000000002" width="19.25233644859813" height="20" as="geometry" />
        </mxCell>
        <mxCell id="pxr-nG4pKd3Dx8W5PENf-26" value="" style="rounded=1;whiteSpace=wrap;html=1;fillColor=#d5e8d4;strokeColor=#82b366;strokeWidth=3;container=0;" parent="1" vertex="1">
          <mxGeometry x="-2155.5742056074764" y="549.2900000000002" width="19.25233644859813" height="20" as="geometry" />
        </mxCell>
        <mxCell id="pxr-nG4pKd3Dx8W5PENf-31" value="&lt;span style=&quot;font-size: 18px;&quot;&gt;&lt;b&gt;User-level Queue&lt;/b&gt;&lt;/span&gt;" style="rounded=0;whiteSpace=wrap;html=1;strokeColor=none;align=center;verticalAlign=middle;fontFamily=Helvetica;fontSize=12;fontColor=default;fillColor=none;container=0;" parent="1" vertex="1">
          <mxGeometry x="-2152.7007476635513" y="490.00000000000006" width="202.14953271028037" height="60" as="geometry" />
        </mxCell>
        <mxCell id="m2thgicQ0JM51j_nxWP1-1" value="&lt;div&gt;&lt;/div&gt;" style="sketch=0;outlineConnect=0;fontColor=#232F3E;gradientColor=none;fillColor=#232F3D;strokeColor=none;dashed=0;verticalLabelPosition=bottom;verticalAlign=top;align=center;html=1;fontSize=12;fontStyle=0;aspect=fixed;pointerEvents=1;shape=mxgraph.aws4.user;container=0;" vertex="1" parent="1">
          <mxGeometry x="-2156.2181308411214" y="622.2900000000001" width="23.75" height="25" as="geometry" />
        </mxCell>
        <mxCell id="pxr-nG4pKd3Dx8W5PENf-29" value="&lt;font style=&quot;font-size: 14px;&quot;&gt;&lt;font style=&quot;&quot;&gt;Best-effort&amp;nbsp;&lt;/font&gt;&lt;span style=&quot;background-color: transparent; color: light-dark(rgb(0, 0, 0), rgb(255, 255, 255));&quot;&gt;&amp;nbsp;&lt;/span&gt;&lt;/font&gt;" style="text;html=1;align=center;verticalAlign=middle;whiteSpace=wrap;rounded=0;container=0;" parent="1" vertex="1">
          <mxGeometry x="-2031" y="545.2600000000001" width="92.62" height="30" as="geometry" />
        </mxCell>
        <mxCell id="KmWtmw2ZZCfsNiWcBelp-29" value="" style="rounded=1;whiteSpace=wrap;html=1;fillColor=#f5f5f5;strokeColor=#666666;container=0;fontColor=#333333;" parent="1" vertex="1">
          <mxGeometry x="-1653" y="712.83" width="440" height="210" as="geometry" />
        </mxCell>
        <mxCell id="KmWtmw2ZZCfsNiWcBelp-4" value="" style="sketch=0;pointerEvents=1;shadow=0;dashed=0;html=1;strokeColor=none;fillColor=#434445;aspect=fixed;labelPosition=center;verticalLabelPosition=bottom;verticalAlign=top;align=center;outlineConnect=0;shape=mxgraph.vvd.cpu;rounded=1;fontFamily=Helvetica;fontSize=12;fontColor=default;fontStyle=1;container=0;" parent="1" vertex="1">
          <mxGeometry x="-1638" y="757.3579629629629" width="55.90074074074075" height="55.90074074074075" as="geometry" />
        </mxCell>
        <mxCell id="KmWtmw2ZZCfsNiWcBelp-5" value="" style="sketch=0;pointerEvents=1;shadow=0;dashed=0;html=1;strokeColor=none;fillColor=#434445;aspect=fixed;labelPosition=center;verticalLabelPosition=bottom;verticalAlign=top;align=center;outlineConnect=0;shape=mxgraph.vvd.cpu;rounded=1;fontFamily=Helvetica;fontSize=12;fontColor=default;fontStyle=1;container=0;" parent="1" vertex="1">
          <mxGeometry x="-1528" y="757.3579629629629" width="55.90074074074075" height="55.90074074074075" as="geometry" />
        </mxCell>
        <mxCell id="KmWtmw2ZZCfsNiWcBelp-6" value="" style="sketch=0;pointerEvents=1;shadow=0;dashed=0;html=1;strokeColor=none;fillColor=#434445;aspect=fixed;labelPosition=center;verticalLabelPosition=bottom;verticalAlign=top;align=center;outlineConnect=0;shape=mxgraph.vvd.cpu;rounded=1;fontFamily=Helvetica;fontSize=12;fontColor=default;container=0;" parent="1" vertex="1">
          <mxGeometry x="-1398" y="757.3579629629629" width="55.90074074074075" height="55.90074074074075" as="geometry" />
        </mxCell>
        <mxCell id="KmWtmw2ZZCfsNiWcBelp-7" value="" style="sketch=0;pointerEvents=1;shadow=0;dashed=0;html=1;strokeColor=none;fillColor=#434445;aspect=fixed;labelPosition=center;verticalLabelPosition=bottom;verticalAlign=top;align=center;outlineConnect=0;shape=mxgraph.vvd.cpu;rounded=1;fontFamily=Helvetica;fontSize=12;fontColor=default;container=0;" parent="1" vertex="1">
          <mxGeometry x="-1288" y="757.3579629629629" width="55.90074074074075" height="55.90074074074075" as="geometry" />
        </mxCell>
        <mxCell id="KmWtmw2ZZCfsNiWcBelp-8" value="" style="sketch=0;pointerEvents=1;shadow=0;dashed=0;html=1;strokeColor=none;fillColor=#434445;aspect=fixed;labelPosition=center;verticalLabelPosition=bottom;verticalAlign=top;align=center;outlineConnect=0;shape=mxgraph.vvd.cpu;rounded=1;fontFamily=Helvetica;fontSize=12;fontColor=default;fontStyle=1;container=0;" parent="1" vertex="1">
          <mxGeometry x="-1638" y="842.209074074074" width="55.90074074074075" height="55.90074074074075" as="geometry" />
        </mxCell>
        <mxCell id="KmWtmw2ZZCfsNiWcBelp-9" value="" style="sketch=0;pointerEvents=1;shadow=0;dashed=0;html=1;strokeColor=none;fillColor=#434445;aspect=fixed;labelPosition=center;verticalLabelPosition=bottom;verticalAlign=top;align=center;outlineConnect=0;shape=mxgraph.vvd.cpu;rounded=1;fontFamily=Helvetica;fontSize=12;fontColor=default;fontStyle=1;container=0;" parent="1" vertex="1">
          <mxGeometry x="-1528" y="842.209074074074" width="55.90074074074075" height="55.90074074074075" as="geometry" />
        </mxCell>
        <mxCell id="KmWtmw2ZZCfsNiWcBelp-10" value="" style="sketch=0;pointerEvents=1;shadow=0;dashed=0;html=1;strokeColor=none;fillColor=#434445;aspect=fixed;labelPosition=center;verticalLabelPosition=bottom;verticalAlign=top;align=center;outlineConnect=0;shape=mxgraph.vvd.cpu;rounded=1;fontFamily=Helvetica;fontSize=12;fontColor=default;container=0;" parent="1" vertex="1">
          <mxGeometry x="-1398" y="842.209074074074" width="55.90074074074075" height="55.90074074074075" as="geometry" />
        </mxCell>
        <mxCell id="KmWtmw2ZZCfsNiWcBelp-11" value="" style="sketch=0;pointerEvents=1;shadow=0;dashed=0;html=1;strokeColor=none;fillColor=#434445;aspect=fixed;labelPosition=center;verticalLabelPosition=bottom;verticalAlign=top;align=center;outlineConnect=0;shape=mxgraph.vvd.cpu;rounded=1;fontFamily=Helvetica;fontSize=12;fontColor=default;container=0;" parent="1" vertex="1">
          <mxGeometry x="-1288" y="842.209074074074" width="55.90074074074075" height="55.90074074074075" as="geometry" />
        </mxCell>
        <mxCell id="KmWtmw2ZZCfsNiWcBelp-12" value="&lt;b&gt;1&lt;/b&gt;" style="rounded=1;whiteSpace=wrap;html=1;fillColor=#fff2cc;strokeColor=#d6b656;strokeWidth=3;container=0;" parent="1" vertex="1">
          <mxGeometry x="-1626" y="769.3881481481482" width="145" height="13.975185185185188" as="geometry" />
        </mxCell>
        <mxCell id="KmWtmw2ZZCfsNiWcBelp-13" value="&lt;b&gt;2&lt;/b&gt;" style="rounded=1;whiteSpace=wrap;html=1;fillColor=#fff2cc;strokeColor=#d6b656;strokeWidth=3;container=0;" parent="1" vertex="1">
          <mxGeometry x="-1626" y="789.3784259259259" width="145" height="13.975185185185188" as="geometry" />
        </mxCell>
        <mxCell id="KmWtmw2ZZCfsNiWcBelp-14" value="&lt;font style=&quot;font-size: 14px;&quot;&gt;&lt;b&gt;4&lt;/b&gt;&lt;/font&gt;" style="rounded=1;whiteSpace=wrap;html=1;fillColor=#fff2cc;strokeColor=#d6b656;strokeWidth=3;container=0;" parent="1" vertex="1">
          <mxGeometry x="-1624.26" y="855.5715842592591" width="30" height="29.175" as="geometry" />
        </mxCell>
        <mxCell id="KmWtmw2ZZCfsNiWcBelp-15" value="&lt;font style=&quot;font-size: 14px;&quot;&gt;&lt;b&gt;10&lt;/b&gt;&lt;/font&gt;" style="rounded=1;whiteSpace=wrap;html=1;fillColor=#fff2cc;strokeColor=#d6b656;strokeWidth=3;container=0;" parent="1" vertex="1">
          <mxGeometry x="-1514.26" y="854.9589092592593" width="30" height="29.175" as="geometry" />
        </mxCell>
        <mxCell id="KmWtmw2ZZCfsNiWcBelp-16" value="&lt;span style=&quot;font-size: 14px;&quot;&gt;&lt;b&gt;5&lt;/b&gt;&lt;/span&gt;" style="rounded=1;whiteSpace=wrap;html=1;fillColor=#fff2cc;strokeColor=#d6b656;strokeWidth=3;container=0;" parent="1" vertex="1">
          <mxGeometry x="-1379" y="856.1842592592592" width="20" height="13.975185185185188" as="geometry" />
        </mxCell>
        <mxCell id="KmWtmw2ZZCfsNiWcBelp-17" value="&lt;span style=&quot;font-size: 14px;&quot;&gt;&lt;b&gt;6&lt;/b&gt;&lt;/span&gt;" style="rounded=1;whiteSpace=wrap;html=1;fillColor=#fff2cc;strokeColor=#d6b656;strokeWidth=3;container=0;" parent="1" vertex="1">
          <mxGeometry x="-1379" y="870.1594444444444" width="20" height="13.975185185185188" as="geometry" />
        </mxCell>
        <mxCell id="KmWtmw2ZZCfsNiWcBelp-18" value="&lt;span style=&quot;font-size: 14px;&quot;&gt;&lt;b&gt;9&lt;/b&gt;&lt;/span&gt;" style="rounded=1;whiteSpace=wrap;html=1;fillColor=#fff2cc;strokeColor=#d6b656;strokeWidth=3;container=0;" parent="1" vertex="1">
          <mxGeometry x="-1269" y="856.1842592592592" width="20" height="13.975185185185188" as="geometry" />
        </mxCell>
        <mxCell id="KmWtmw2ZZCfsNiWcBelp-19" value="&lt;span style=&quot;font-size: 14px;&quot;&gt;&lt;b&gt;8&lt;/b&gt;&lt;/span&gt;" style="rounded=1;whiteSpace=wrap;html=1;fillColor=#fff2cc;strokeColor=#d6b656;strokeWidth=3;container=0;" parent="1" vertex="1">
          <mxGeometry x="-1269" y="870.1594444444444" width="20" height="13.975185185185188" as="geometry" />
        </mxCell>
        <mxCell id="KmWtmw2ZZCfsNiWcBelp-20" value="&lt;font style=&quot;font-size: 14px;&quot;&gt;&lt;b&gt;7&lt;/b&gt;&lt;/font&gt;" style="rounded=1;whiteSpace=wrap;html=1;fillColor=#d5e8d4;strokeColor=#82b366;strokeWidth=3;container=0;" parent="1" vertex="1">
          <mxGeometry x="-1274.2600000000002" y="771.045" width="30" height="29.175" as="geometry" />
        </mxCell>
        <mxCell id="KmWtmw2ZZCfsNiWcBelp-21" value="&lt;font style=&quot;font-size: 14px;&quot;&gt;&lt;b&gt;3&lt;/b&gt;&lt;/font&gt;" style="rounded=1;whiteSpace=wrap;html=1;fillColor=#d5e8d4;strokeColor=#82b366;strokeWidth=3;container=0;" parent="1" vertex="1">
          <mxGeometry x="-1383.2600000000002" y="771.045" width="30" height="29.175" as="geometry" />
        </mxCell>
        <mxCell id="KmWtmw2ZZCfsNiWcBelp-23" value="" style="rounded=0;whiteSpace=wrap;html=1;strokeWidth=3;strokeColor=#FF0000;dashed=1;fillColor=none;container=0;" parent="1" vertex="1">
          <mxGeometry x="-1628" y="841.5982" width="170" height="55.8993" as="geometry" />
        </mxCell>
        <mxCell id="KmWtmw2ZZCfsNiWcBelp-25" value="" style="rounded=0;whiteSpace=wrap;html=1;strokeWidth=3;strokeColor=#FF0000;dashed=1;fillColor=none;container=0;" parent="1" vertex="1">
          <mxGeometry x="-1528" y="842.20115" width="190" height="55.8993" as="geometry" />
        </mxCell>
        <mxCell id="KmWtmw2ZZCfsNiWcBelp-24" value="" style="rounded=0;whiteSpace=wrap;html=1;strokeWidth=3;strokeColor=#FF0000;dashed=1;fillColor=none;container=0;" parent="1" vertex="1">
          <mxGeometry x="-1403" y="841.6" width="170" height="55.9" as="geometry" />
        </mxCell>
        <mxCell id="KmWtmw2ZZCfsNiWcBelp-26" value="&lt;font style=&quot;font-size: 16px;&quot;&gt;&lt;b&gt;Cluster Nodes&lt;/b&gt;&lt;/font&gt;" style="text;html=1;align=center;verticalAlign=middle;whiteSpace=wrap;rounded=0;container=0;" parent="1" vertex="1">
          <mxGeometry x="-1638" y="712.8299999999999" width="153.75" height="29.17" as="geometry" />
        </mxCell>
        <mxCell id="KmWtmw2ZZCfsNiWcBelp-22" value="" style="rounded=0;whiteSpace=wrap;html=1;strokeWidth=3;strokeColor=#FF0000;dashed=1;fillColor=none;container=0;" parent="1" vertex="1">
          <mxGeometry x="-1633" y="767.42" width="160" height="40" as="geometry" />
        </mxCell>
        <mxCell id="KmWtmw2ZZCfsNiWcBelp-56" value="&lt;font style=&quot;font-size: 14px;&quot;&gt;&lt;b&gt;Optional Devices Combinations&lt;/b&gt;&lt;/font&gt;" style="text;whiteSpace=wrap;html=1;container=0;" parent="1" vertex="1">
          <mxGeometry x="-1428.6100000000001" y="714.8299999999999" width="232.61" height="30" as="geometry" />
        </mxCell>
        <mxCell id="KmWtmw2ZZCfsNiWcBelp-57" value="" style="rounded=0;whiteSpace=wrap;html=1;strokeWidth=3;strokeColor=#FF0000;dashed=1;fillColor=none;container=0;" parent="1" vertex="1">
          <mxGeometry x="-1457.7800000000002" y="719.5" width="23.333333333333332" height="22.5" as="geometry" />
        </mxCell>
        <mxCell id="m2thgicQ0JM51j_nxWP1-7" value="" style="rounded=1;whiteSpace=wrap;html=1;align=center;verticalAlign=middle;fontFamily=Helvetica;fontSize=12;container=0;fillColor=#f5f5f5;fontColor=#333333;strokeColor=#666666;" vertex="1" parent="1">
          <mxGeometry x="-1647.0900000000001" y="522.08" width="180" height="150" as="geometry" />
        </mxCell>
        <mxCell id="m2thgicQ0JM51j_nxWP1-8" value="&lt;b style=&quot;&quot;&gt;&lt;font style=&quot;font-size: 18px;&quot;&gt;Time&lt;/font&gt;&lt;/b&gt;" style="rounded=0;whiteSpace=wrap;html=1;strokeColor=none;align=center;verticalAlign=middle;fontFamily=Helvetica;fontSize=12;fontColor=default;fillColor=none;container=0;" vertex="1" parent="1">
          <mxGeometry x="-1643.33" y="518.58" width="176.24" height="30" as="geometry" />
        </mxCell>
        <mxCell id="m2thgicQ0JM51j_nxWP1-9" value="&lt;font style=&quot;font-size: 14px;&quot;&gt;Train&lt;/font&gt;" style="rounded=0;whiteSpace=wrap;html=1;strokeColor=none;align=center;verticalAlign=middle;fontFamily=Helvetica;fontSize=12;fontColor=default;fillColor=none;container=0;" vertex="1" parent="1">
          <mxGeometry x="-1616.5900000000001" y="554.58" width="63.3" height="60" as="geometry" />
        </mxCell>
        <mxCell id="m2thgicQ0JM51j_nxWP1-10" value="&lt;font style=&quot;font-size: 14px;&quot;&gt;Predict&lt;/font&gt;" style="rounded=0;whiteSpace=wrap;html=1;strokeColor=none;align=center;verticalAlign=middle;fontFamily=Helvetica;fontSize=12;fontColor=default;fillColor=none;container=0;" vertex="1" parent="1">
          <mxGeometry x="-1628.0300000000002" y="606.86" width="73.3" height="44" as="geometry" />
        </mxCell>
        <mxCell id="m2thgicQ0JM51j_nxWP1-20" value="&lt;font style=&quot;font-size: 14px;&quot;&gt;&lt;b&gt;Tree&lt;/b&gt;&lt;/font&gt;" style="rounded=0;whiteSpace=wrap;html=1;container=0;" vertex="1" parent="1">
          <mxGeometry x="-1626.5899999999997" y="595.58" width="140" height="20" as="geometry" />
        </mxCell>
        <mxCell id="m2thgicQ0JM51j_nxWP1-31" value="" style="endArrow=openThin;html=1;rounded=0;endFill=0;" edge="1" parent="1">
          <mxGeometry width="50" height="50" relative="1" as="geometry">
            <mxPoint x="-1556.23" y="575.58" as="sourcePoint" />
            <mxPoint x="-1556.23" y="595.58" as="targetPoint" />
          </mxGeometry>
        </mxCell>
        <mxCell id="m2thgicQ0JM51j_nxWP1-32" value="" style="endArrow=openThin;html=1;rounded=0;endFill=0;" edge="1" parent="1">
          <mxGeometry width="50" height="50" relative="1" as="geometry">
            <mxPoint x="-1556.23" y="616.58" as="sourcePoint" />
            <mxPoint x="-1556.23" y="636.58" as="targetPoint" />
          </mxGeometry>
        </mxCell>
        <mxCell id="m2thgicQ0JM51j_nxWP1-12" value="" style="shape=parallelogram;perimeter=parallelogramPerimeter;whiteSpace=wrap;html=1;fixedSize=1;container=0;" vertex="1" parent="1">
          <mxGeometry x="-1629.73" y="544.58" width="152.64" height="31" as="geometry" />
        </mxCell>
        <mxCell id="m2thgicQ0JM51j_nxWP1-13" value="" style="ellipse;whiteSpace=wrap;html=1;aspect=fixed;fillColor=#CCCCCC;strokeColor=#666666;strokeWidth=0;gradientColor=none;container=0;" vertex="1" parent="1">
          <mxGeometry x="-1616.73" y="564.58" width="8" height="8" as="geometry" />
        </mxCell>
        <mxCell id="m2thgicQ0JM51j_nxWP1-14" value="" style="ellipse;whiteSpace=wrap;html=1;aspect=fixed;fillColor=#CCCCCC;strokeColor=#666666;strokeWidth=0;gradientColor=none;container=0;" vertex="1" parent="1">
          <mxGeometry x="-1598.73" y="557.58" width="8" height="8" as="geometry" />
        </mxCell>
        <mxCell id="m2thgicQ0JM51j_nxWP1-15" value="" style="ellipse;whiteSpace=wrap;html=1;aspect=fixed;fillColor=#CCCCCC;strokeColor=#666666;strokeWidth=0;gradientColor=none;container=0;" vertex="1" parent="1">
          <mxGeometry x="-1578.73" y="549.58" width="8" height="8" as="geometry" />
        </mxCell>
        <mxCell id="m2thgicQ0JM51j_nxWP1-16" value="" style="ellipse;whiteSpace=wrap;html=1;aspect=fixed;fillColor=#CCCCCC;strokeColor=#666666;strokeWidth=0;gradientColor=none;container=0;" vertex="1" parent="1">
          <mxGeometry x="-1558.73" y="557.58" width="8" height="8" as="geometry" />
        </mxCell>
        <mxCell id="m2thgicQ0JM51j_nxWP1-17" value="" style="ellipse;whiteSpace=wrap;html=1;aspect=fixed;fillColor=#CCCCCC;strokeColor=#666666;strokeWidth=0;gradientColor=none;container=0;" vertex="1" parent="1">
          <mxGeometry x="-1537.73" y="565.58" width="8" height="8" as="geometry" />
        </mxCell>
        <mxCell id="m2thgicQ0JM51j_nxWP1-18" value="" style="ellipse;whiteSpace=wrap;html=1;aspect=fixed;fillColor=#CCCCCC;strokeColor=#666666;strokeWidth=0;gradientColor=none;container=0;" vertex="1" parent="1">
          <mxGeometry x="-1514.73" y="562.58" width="8" height="8" as="geometry" />
        </mxCell>
        <mxCell id="m2thgicQ0JM51j_nxWP1-19" value="" style="ellipse;whiteSpace=wrap;html=1;aspect=fixed;fillColor=#CCCCCC;strokeColor=#666666;strokeWidth=0;gradientColor=none;container=0;" vertex="1" parent="1">
          <mxGeometry x="-1492.73" y="548.58" width="8" height="8" as="geometry" />
        </mxCell>
        <mxCell id="m2thgicQ0JM51j_nxWP1-34" value="&lt;b&gt;&lt;font style=&quot;font-size: 14px;&quot;&gt;Job Execution Time&lt;/font&gt;&lt;/b&gt;" style="rounded=1;whiteSpace=wrap;html=1;fillColor=#f8cecc;strokeColor=#b85450;" vertex="1" parent="1">
          <mxGeometry x="-1629.73" y="639.86" width="148.5" height="26" as="geometry" />
        </mxCell>
        <mxCell id="m2thgicQ0JM51j_nxWP1-39" value="" style="group" vertex="1" connectable="0" parent="1">
          <mxGeometry x="-2157.04" y="802.83" width="257.04" height="120" as="geometry" />
        </mxCell>
        <mxCell id="m2thgicQ0JM51j_nxWP1-38" value="" style="rounded=1;whiteSpace=wrap;html=1;fillColor=#f5f5f5;fontColor=#333333;strokeColor=#666666;" vertex="1" parent="m2thgicQ0JM51j_nxWP1-39">
          <mxGeometry y="4.77" width="257.04" height="105.23" as="geometry" />
        </mxCell>
        <mxCell id="xA-fxwkaHmTKi_L9O3ju-68" value="" style="endArrow=none;dashed=1;html=1;dashPattern=1 3;strokeWidth=2;rounded=0;exitX=0.124;exitY=0.108;exitDx=0;exitDy=0;exitPerimeter=0;" parent="m2thgicQ0JM51j_nxWP1-39" source="xA-fxwkaHmTKi_L9O3ju-77" edge="1">
          <mxGeometry width="50" height="50" relative="1" as="geometry">
            <mxPoint x="24.3189674999999" y="68.82767560819431" as="sourcePoint" />
            <mxPoint x="248.42763000000002" y="68.82767560819431" as="targetPoint" />
          </mxGeometry>
        </mxCell>
        <mxCell id="xA-fxwkaHmTKi_L9O3ju-69" value="" style="rounded=1;whiteSpace=wrap;html=1;fillColor=#d5e8d4;strokeColor=#82b366;strokeWidth=3;" parent="m2thgicQ0JM51j_nxWP1-39" vertex="1">
          <mxGeometry x="118.76013000000002" y="38.67660720108235" width="21.611250000000005" height="21.507779815025728" as="geometry" />
        </mxCell>
        <mxCell id="xA-fxwkaHmTKi_L9O3ju-70" value="" style="rounded=1;whiteSpace=wrap;html=1;fillColor=#d5e8d4;strokeColor=#82b366;strokeWidth=3;" parent="m2thgicQ0JM51j_nxWP1-39" vertex="1">
          <mxGeometry x="153.33812999999995" y="38.67660720108235" width="21.611250000000005" height="21.507779815025728" as="geometry" />
        </mxCell>
        <mxCell id="xA-fxwkaHmTKi_L9O3ju-71" value="" style="rounded=1;whiteSpace=wrap;html=1;fillColor=#d5e8d4;strokeColor=#82b366;strokeWidth=3;" parent="m2thgicQ0JM51j_nxWP1-39" vertex="1">
          <mxGeometry x="187.7000175" y="38.67660720108235" width="21.611250000000005" height="21.507779815025728" as="geometry" />
        </mxCell>
        <mxCell id="xA-fxwkaHmTKi_L9O3ju-72" value="" style="rounded=1;whiteSpace=wrap;html=1;fillColor=#d5e8d4;strokeColor=#82b366;strokeWidth=3;" parent="m2thgicQ0JM51j_nxWP1-39" vertex="1">
          <mxGeometry x="222.49413000000007" y="38.67660720108235" width="21.611250000000005" height="21.507779815025728" as="geometry" />
        </mxCell>
        <mxCell id="xA-fxwkaHmTKi_L9O3ju-73" value="&lt;font style=&quot;font-size: 13px;&quot;&gt;High priority Queue&lt;/font&gt;" style="text;whiteSpace=wrap;html=1;fontFamily=Helvetica;fontSize=12;fontColor=default;align=center;" parent="m2thgicQ0JM51j_nxWP1-39" vertex="1">
          <mxGeometry x="25.740720000000007" y="29.387456137550444" width="77.80050000000001" height="32.08960748401838" as="geometry" />
        </mxCell>
        <mxCell id="xA-fxwkaHmTKi_L9O3ju-77" value="&lt;font style=&quot;font-size: 14px;&quot;&gt;Low Priority Queue&lt;/font&gt;" style="text;whiteSpace=wrap;html=1;fontFamily=Helvetica;fontSize=12;fontColor=default;align=center;" parent="m2thgicQ0JM51j_nxWP1-39" vertex="1">
          <mxGeometry x="21.418469999999953" y="66.26854991876198" width="86.44500000000002" height="32.08960748401838" as="geometry" />
        </mxCell>
        <mxCell id="pxr-nG4pKd3Dx8W5PENf-30" value="" style="rounded=1;whiteSpace=wrap;html=1;fillColor=#fff2cc;strokeColor=#d6b656;strokeWidth=3;" parent="m2thgicQ0JM51j_nxWP1-39" vertex="1">
          <mxGeometry x="187.7000175" y="76.8508444232854" width="21.611250000000005" height="21.507779815025728" as="geometry" />
        </mxCell>
        <mxCell id="pxr-nG4pKd3Dx8W5PENf-32" value="" style="rounded=1;whiteSpace=wrap;html=1;fillColor=#fff2cc;strokeColor=#d6b656;strokeWidth=3;" parent="m2thgicQ0JM51j_nxWP1-39" vertex="1">
          <mxGeometry x="153.33812999999995" y="76.8508444232854" width="21.611250000000005" height="21.507779815025728" as="geometry" />
        </mxCell>
        <mxCell id="pxr-nG4pKd3Dx8W5PENf-33" value="" style="rounded=1;whiteSpace=wrap;html=1;fillColor=#fff2cc;strokeColor=#d6b656;strokeWidth=3;" parent="m2thgicQ0JM51j_nxWP1-39" vertex="1">
          <mxGeometry x="118.76013000000002" y="76.8508444232854" width="21.611250000000005" height="21.507779815025728" as="geometry" />
        </mxCell>
        <mxCell id="xA-fxwkaHmTKi_L9O3ju-67" value="&lt;b style=&quot;&quot;&gt;&lt;font style=&quot;font-size: 17px;&quot;&gt;Cluster-level Queue&lt;/font&gt;&lt;/b&gt;" style="rounded=0;whiteSpace=wrap;html=1;strokeColor=none;align=center;verticalAlign=middle;fontFamily=Helvetica;fontSize=12;fontColor=default;fillColor=none;" parent="m2thgicQ0JM51j_nxWP1-39" vertex="1">
          <mxGeometry x="29.715659999999975" width="181.53450000000004" height="48.13901289054614" as="geometry" />
        </mxCell>
        <mxCell id="xA-fxwkaHmTKi_L9O3ju-19" value="&lt;div&gt;&lt;br&gt;&lt;/div&gt;&lt;div&gt;&lt;br&gt;&lt;/div&gt;&lt;div&gt;&lt;br&gt;&lt;/div&gt;&lt;div&gt;&lt;br&gt;&lt;/div&gt;&lt;div&gt;&lt;br&gt;&lt;/div&gt;&lt;div&gt;&lt;br&gt;&lt;/div&gt;&lt;div&gt;&lt;br&gt;&lt;/div&gt;&lt;div&gt;&lt;br&gt;&lt;/div&gt;" style="rounded=1;whiteSpace=wrap;html=1;align=center;verticalAlign=middle;fontFamily=Helvetica;fontSize=12;fillColor=#f5f5f5;strokeColor=#666666;container=0;fontColor=#333333;" parent="1" vertex="1">
          <mxGeometry x="-1914.96" y="494.29" width="220" height="180" as="geometry" />
        </mxCell>
        <mxCell id="xA-fxwkaHmTKi_L9O3ju-21" value="&lt;font style=&quot;font-size: 14px;&quot;&gt;&lt;b&gt;Model Configuration&lt;/b&gt;&lt;/font&gt;&lt;div&gt;&lt;font style=&quot;font-size: 14px;&quot;&gt;&lt;b&gt;(e.g., batch_size,amp)&lt;/b&gt;&lt;/font&gt;&lt;/div&gt;" style="rounded=1;whiteSpace=wrap;html=1;align=center;verticalAlign=middle;fontFamily=Helvetica;fontSize=12;fontStyle=0;container=0;" parent="1" vertex="1">
          <mxGeometry x="-1906.04" y="534.7900000000001" width="200" height="40" as="geometry" />
        </mxCell>
        <mxCell id="xA-fxwkaHmTKi_L9O3ju-24" value="&lt;span style=&quot;color: light-dark(rgb(0, 0, 0), rgb(255, 255, 255)); background-color: transparent;&quot;&gt;&lt;font style=&quot;font-size: 14px;&quot;&gt;&lt;b&gt;Runtime Specification&lt;/b&gt;&lt;/font&gt;&lt;/span&gt;&lt;div&gt;&lt;span style=&quot;color: light-dark(rgb(0, 0, 0), rgb(255, 255, 255)); background-color: transparent;&quot;&gt;&lt;font style=&quot;font-size: 14px;&quot;&gt;&lt;b&gt;(e.g.GPU util, GPU mem&lt;/b&gt;&lt;/font&gt;&lt;/span&gt;&lt;b style=&quot;font-size: 14px; background-color: transparent; color: light-dark(rgb(0, 0, 0), rgb(255, 255, 255));&quot;&gt;&amp;nbsp;util )&lt;/b&gt;&lt;/div&gt;" style="rounded=1;whiteSpace=wrap;html=1;align=center;verticalAlign=middle;fontFamily=Helvetica;fontSize=12;fontStyle=0;container=0;" parent="1" vertex="1">
          <mxGeometry x="-1906.04" y="578.7900000000001" width="200" height="40" as="geometry" />
        </mxCell>
        <mxCell id="pxr-nG4pKd3Dx8W5PENf-107" value="&lt;font style=&quot;font-size: 14px;&quot;&gt;&lt;b&gt;Model Architechture&lt;/b&gt;&lt;/font&gt;" style="rounded=1;whiteSpace=wrap;html=1;align=center;verticalAlign=middle;fontFamily=Helvetica;fontSize=12;fontStyle=0;container=0;" parent="1" vertex="1">
          <mxGeometry x="-1906.04" y="621.7900000000001" width="200" height="40" as="geometry" />
        </mxCell>
        <mxCell id="xA-fxwkaHmTKi_L9O3ju-20" value="&lt;font style=&quot;font-size: 18px;&quot;&gt;&lt;b style=&quot;&quot;&gt;Profiler&lt;/b&gt;&lt;/font&gt;" style="rounded=0;whiteSpace=wrap;html=1;strokeColor=none;align=center;verticalAlign=middle;fontFamily=Helvetica;fontSize=12;fontColor=default;fillColor=none;container=0;" parent="1" vertex="1">
          <mxGeometry x="-1911.04" y="494.29" width="210" height="51.42857142857142" as="geometry" />
        </mxCell>
        <mxCell id="m2thgicQ0JM51j_nxWP1-48" value="&lt;font style=&quot;font-size: 14px;&quot;&gt;&lt;b&gt;DRA&amp;nbsp;&lt;/b&gt;&lt;/font&gt;&lt;div&gt;&lt;font style=&quot;font-size: 14px;&quot;&gt;&lt;b&gt;Job Priority&lt;/b&gt;&lt;/font&gt;&lt;/div&gt;" style="rounded=0;whiteSpace=wrap;html=1;fillColor=#dae8fc;strokeColor=#6c8ebf;" vertex="1" parent="1">
          <mxGeometry x="-2152.7" y="748.5000000000001" width="120" height="50" as="geometry" />
        </mxCell>
        <mxCell id="m2thgicQ0JM51j_nxWP1-49" value="&lt;font style=&quot;font-size: 14px;&quot;&gt;&lt;b&gt;Interference&amp;nbsp;&lt;/b&gt;&lt;/font&gt;&lt;div&gt;&lt;font style=&quot;font-size: 14px;&quot;&gt;&lt;b&gt;Colocation&lt;/b&gt;&lt;/font&gt;&lt;/div&gt;" style="rounded=0;whiteSpace=wrap;html=1;fillColor=#dae8fc;strokeColor=#6c8ebf;" vertex="1" parent="1">
          <mxGeometry x="-2022.27" y="748.5000000000001" width="120" height="50" as="geometry" />
        </mxCell>
        <mxCell id="xA-fxwkaHmTKi_L9O3ju-61" value="&lt;font style=&quot;font-size: 14px;&quot;&gt;&lt;b&gt;Job Schedule&lt;/b&gt;&lt;/font&gt;" style="rounded=0;whiteSpace=wrap;html=1;strokeColor=#b85450;align=center;verticalAlign=middle;fontFamily=Helvetica;fontSize=12;fillColor=#f8cecc;" parent="1" vertex="1">
          <mxGeometry x="-1870.13" y="748.5000000000001" width="120" height="70" as="geometry" />
        </mxCell>
        <mxCell id="xA-fxwkaHmTKi_L9O3ju-63" value="&lt;font style=&quot;font-size: 14px;&quot;&gt;&lt;b&gt;Job Preempt&lt;/b&gt;&lt;/font&gt;" style="rounded=0;whiteSpace=wrap;html=1;strokeColor=#9673a6;align=center;verticalAlign=middle;fontFamily=Helvetica;fontSize=12;fillColor=#e1d5e7;" parent="1" vertex="1">
          <mxGeometry x="-1870.1329285714287" y="838.2121621621621" width="120" height="70" as="geometry" />
        </mxCell>
        <mxCell id="m2thgicQ0JM51j_nxWP1-51" value="" style="endArrow=classic;html=1;rounded=0;strokeWidth=2;exitX=1;exitY=0.329;exitDx=0;exitDy=0;exitPerimeter=0;entryX=0.002;entryY=0.329;entryDx=0;entryDy=0;entryPerimeter=0;" edge="1" parent="1" source="xA-fxwkaHmTKi_L9O3ju-57" target="KmWtmw2ZZCfsNiWcBelp-29">
          <mxGeometry width="50" height="50" relative="1" as="geometry">
            <mxPoint x="-1730" y="782.83" as="sourcePoint" />
            <mxPoint x="-1660" y="782.83" as="targetPoint" />
          </mxGeometry>
        </mxCell>
        <mxCell id="m2thgicQ0JM51j_nxWP1-53" value="" style="endArrow=classic;html=1;rounded=0;strokeWidth=2;exitX=1;exitY=0.329;exitDx=0;exitDy=0;exitPerimeter=0;entryX=0.002;entryY=0.329;entryDx=0;entryDy=0;entryPerimeter=0;" edge="1" parent="1">
          <mxGeometry width="50" height="50" relative="1" as="geometry">
            <mxPoint x="-1741" y="870.16" as="sourcePoint" />
            <mxPoint x="-1653" y="870.16" as="targetPoint" />
          </mxGeometry>
        </mxCell>
        <mxCell id="m2thgicQ0JM51j_nxWP1-54" value="&lt;font style=&quot;font-size: 14px;&quot;&gt;&lt;b&gt;Preempt&lt;/b&gt;&lt;/font&gt;" style="text;html=1;align=center;verticalAlign=middle;resizable=0;points=[];autosize=1;strokeColor=none;fillColor=none;" vertex="1" parent="1">
          <mxGeometry x="-1740" y="838.2100000000002" width="80" height="30" as="geometry" />
        </mxCell>
        <mxCell id="m2thgicQ0JM51j_nxWP1-55" value="&lt;font style=&quot;font-size: 14px;&quot;&gt;&lt;b&gt;Schedule&lt;/b&gt;&lt;/font&gt;" style="text;html=1;align=center;verticalAlign=middle;resizable=0;points=[];autosize=1;strokeColor=none;fillColor=none;" vertex="1" parent="1">
          <mxGeometry x="-1738" y="753.3600000000002" width="90" height="30" as="geometry" />
        </mxCell>
        <mxCell id="xA-fxwkaHmTKi_L9O3ju-44" value="" style="sketch=0;pointerEvents=1;shadow=0;dashed=0;html=1;strokeColor=none;fillColor=#434445;aspect=fixed;labelPosition=center;verticalLabelPosition=bottom;verticalAlign=top;align=center;outlineConnect=0;shape=mxgraph.vvd.cpu;rounded=1;fontFamily=Helvetica;fontSize=12;fontColor=default;container=0;" parent="1" vertex="1">
          <mxGeometry x="-1378.4767364016734" y="570.3151222651223" width="30" height="30" as="geometry" />
        </mxCell>
        <mxCell id="xA-fxwkaHmTKi_L9O3ju-47" value="&lt;font style=&quot;font-size: 14px;&quot;&gt;&lt;b&gt;Single&lt;/b&gt;&lt;/font&gt;" style="text;html=1;align=center;verticalAlign=middle;resizable=0;points=[];autosize=1;strokeColor=none;fillColor=none;fontFamily=Helvetica;fontSize=12;fontColor=default;container=0;" parent="1" vertex="1">
          <mxGeometry x="-1451.0427615062758" y="548.07" width="70" height="30" as="geometry" />
        </mxCell>
        <mxCell id="xA-fxwkaHmTKi_L9O3ju-48" value="" style="sketch=0;pointerEvents=1;shadow=0;dashed=0;html=1;strokeColor=none;fillColor=#434445;aspect=fixed;labelPosition=center;verticalLabelPosition=bottom;verticalAlign=top;align=center;outlineConnect=0;shape=mxgraph.vvd.cpu;rounded=1;fontFamily=Helvetica;fontSize=12;fontColor=default;container=0;" parent="1" vertex="1">
          <mxGeometry x="-1379.2467364016734" y="621.8177477477478" width="30" height="30" as="geometry" />
        </mxCell>
        <mxCell id="xA-fxwkaHmTKi_L9O3ju-49" value="&lt;font style=&quot;font-size: 14px;&quot;&gt;&lt;b&gt;Colocate&lt;/b&gt;&lt;/font&gt;" style="text;html=1;align=center;verticalAlign=middle;resizable=0;points=[];autosize=1;strokeColor=none;fillColor=none;fontFamily=Helvetica;fontSize=12;fontColor=default;container=0;" parent="1" vertex="1">
          <mxGeometry x="-1454.48" y="590.053268983269" width="80" height="30" as="geometry" />
        </mxCell>
        <mxCell id="pxr-nG4pKd3Dx8W5PENf-63" value="" style="edgeStyle=orthogonalEdgeStyle;rounded=0;orthogonalLoop=1;jettySize=auto;html=1;" parent="1" source="pxr-nG4pKd3Dx8W5PENf-1" target="pxr-nG4pKd3Dx8W5PENf-2" edge="1">
          <mxGeometry relative="1" as="geometry" />
        </mxCell>
        <mxCell id="pxr-nG4pKd3Dx8W5PENf-1" value="&lt;b style=&quot;&quot;&gt;&lt;font style=&quot;font-size: 14px;&quot;&gt;Interference Model&lt;/font&gt;&lt;/b&gt;" style="rounded=0;whiteSpace=wrap;html=1;strokeColor=#9673a6;align=center;verticalAlign=middle;fontFamily=Helvetica;fontSize=12;fillColor=#e1d5e7;container=0;" parent="1" vertex="1">
          <mxGeometry x="-1321.8399999999997" y="570.85" width="90.36" height="33.86" as="geometry" />
        </mxCell>
        <mxCell id="pxr-nG4pKd3Dx8W5PENf-2" value="&lt;font style=&quot;font-size: 14px;&quot;&gt;&lt;b&gt;Decay&lt;/b&gt;&lt;/font&gt;" style="rounded=1;whiteSpace=wrap;html=1;fillColor=#f8cecc;strokeColor=#b85450;container=0;" parent="1" vertex="1">
          <mxGeometry x="-1311.200209205021" y="632.0822265122267" width="69.0836820083682" height="22.487773487773488" as="geometry" />
        </mxCell>
        <mxCell id="pxr-nG4pKd3Dx8W5PENf-115" value="" style="endArrow=classic;html=1;rounded=0;" parent="1" edge="1">
          <mxGeometry width="50" height="50" relative="1" as="geometry">
            <mxPoint x="-1399.6431799163179" y="584.037824967825" as="sourcePoint" />
            <mxPoint x="-1382.1536401673638" y="584.037824967825" as="targetPoint" />
          </mxGeometry>
        </mxCell>
        <mxCell id="pxr-nG4pKd3Dx8W5PENf-119" value="" style="endArrow=classic;html=1;rounded=0;" parent="1" edge="1">
          <mxGeometry width="50" height="50" relative="1" as="geometry">
            <mxPoint x="-1341.0490376569037" y="587.9284298584299" as="sourcePoint" />
            <mxPoint x="-1323.5594979079497" y="587.9284298584299" as="targetPoint" />
          </mxGeometry>
        </mxCell>
        <mxCell id="pxr-nG4pKd3Dx8W5PENf-121" value="" style="endArrow=classic;html=1;rounded=0;" parent="1" edge="1">
          <mxGeometry width="50" height="50" relative="1" as="geometry">
            <mxPoint x="-1400.2021338912132" y="635.6298455598456" as="sourcePoint" />
            <mxPoint x="-1382.7125941422591" y="635.6298455598456" as="targetPoint" />
          </mxGeometry>
        </mxCell>
        <mxCell id="3zxGxmOl3bXe5hBAlZmh-57" value="" style="rounded=1;whiteSpace=wrap;html=1;fillColor=#d5e8d4;strokeColor=#82b366;strokeWidth=3;container=0;" parent="1" vertex="1">
          <mxGeometry x="-1425.6642056074766" y="577.0500000000001" width="15" height="15" as="geometry" />
        </mxCell>
        <mxCell id="3zxGxmOl3bXe5hBAlZmh-64" value="" style="edgeStyle=segmentEdgeStyle;endArrow=classic;html=1;curved=0;rounded=0;endSize=8;startSize=8;entryX=0;entryY=1;entryDx=0;entryDy=0;" parent="1" edge="1" target="pxr-nG4pKd3Dx8W5PENf-1" source="xA-fxwkaHmTKi_L9O3ju-48">
          <mxGeometry width="50" height="50" relative="1" as="geometry">
            <mxPoint x="-1344.85" y="661.7099999999999" as="sourcePoint" />
            <mxPoint x="-1321.48" y="616.07" as="targetPoint" />
          </mxGeometry>
        </mxCell>
        <mxCell id="m2thgicQ0JM51j_nxWP1-63" value="" style="group" vertex="1" connectable="0" parent="1">
          <mxGeometry x="-1448.1599999999999" y="611.8196010296011" width="60" height="50" as="geometry" />
        </mxCell>
        <mxCell id="pxr-nG4pKd3Dx8W5PENf-10" value="&lt;font style=&quot;font-size: 16px;&quot;&gt;&lt;b&gt;...&lt;/b&gt;&lt;/font&gt;" style="text;html=1;align=center;verticalAlign=middle;whiteSpace=wrap;rounded=0;container=0;" parent="m2thgicQ0JM51j_nxWP1-63" vertex="1">
          <mxGeometry x="3.929623430962465" y="8.171171171171181" width="52.46861924686193" height="26.71814671814672" as="geometry" />
        </mxCell>
        <mxCell id="pxr-nG4pKd3Dx8W5PENf-11" value="" style="rounded=1;whiteSpace=wrap;html=1;fillColor=#f5f5f5;strokeColor=#666666;fontColor=#333333;container=0;" parent="m2thgicQ0JM51j_nxWP1-63" vertex="1">
          <mxGeometry x="20.176485355648765" width="20" height="50" as="geometry" />
        </mxCell>
        <mxCell id="3zxGxmOl3bXe5hBAlZmh-58" value="" style="rounded=1;whiteSpace=wrap;html=1;fillColor=#fff2cc;strokeColor=#d6b656;strokeWidth=3;container=0;" parent="m2thgicQ0JM51j_nxWP1-63" vertex="1">
          <mxGeometry x="22.59485981308444" y="2.9503989703989646" width="15" height="15" as="geometry" />
        </mxCell>
        <mxCell id="3zxGxmOl3bXe5hBAlZmh-59" value="" style="rounded=1;whiteSpace=wrap;html=1;fillColor=#fff2cc;strokeColor=#d6b656;strokeWidth=3;container=0;" parent="m2thgicQ0JM51j_nxWP1-63" vertex="1">
          <mxGeometry x="22.504859813084522" y="30.840398970399065" width="15" height="15" as="geometry" />
        </mxCell>
        <mxCell id="m2thgicQ0JM51j_nxWP1-61" value="&lt;b&gt;...&lt;/b&gt;" style="text;html=1;align=center;verticalAlign=middle;whiteSpace=wrap;rounded=0;" vertex="1" parent="m2thgicQ0JM51j_nxWP1-63">
          <mxGeometry y="6.8903989703989055" width="60" height="30" as="geometry" />
        </mxCell>
        <mxCell id="m2thgicQ0JM51j_nxWP1-65" value="&lt;b&gt;&lt;font style=&quot;font-size: 18px;&quot;&gt;Predictor&lt;/font&gt;&lt;/b&gt;" style="text;html=1;align=center;verticalAlign=middle;whiteSpace=wrap;rounded=0;" vertex="1" parent="1">
          <mxGeometry x="-1659.48" y="494.29" width="448" height="30" as="geometry" />
        </mxCell>
        <mxCell id="m2thgicQ0JM51j_nxWP1-66" value="" style="shape=singleArrow;whiteSpace=wrap;html=1;fillColor=#dae8fc;strokeColor=#6c8ebf;strokeWidth=2;" vertex="1" parent="1">
          <mxGeometry x="-1947" y="576.58" width="30" height="20" as="geometry" />
        </mxCell>
        <mxCell id="m2thgicQ0JM51j_nxWP1-67" value="" style="shape=singleArrow;whiteSpace=wrap;html=1;fillColor=#dae8fc;strokeColor=#6c8ebf;strokeWidth=2;" vertex="1" parent="1">
          <mxGeometry x="-1691" y="577.58" width="30" height="20" as="geometry" />
        </mxCell>
        <mxCell id="m2thgicQ0JM51j_nxWP1-68" value="" style="endArrow=classic;html=1;rounded=0;" edge="1" parent="1">
          <mxGeometry width="50" height="50" relative="1" as="geometry">
            <mxPoint x="-2055.52" y="674.2900000000001" as="sourcePoint" />
            <mxPoint x="-2055.48" y="715.58" as="targetPoint" />
          </mxGeometry>
        </mxCell>
        <mxCell id="m2thgicQ0JM51j_nxWP1-69" value="&lt;b&gt;&lt;font style=&quot;font-size: 14px;&quot;&gt;Runtime Analyze&lt;/font&gt;&lt;/b&gt;" style="text;html=1;align=center;verticalAlign=middle;resizable=0;points=[];autosize=1;strokeColor=none;fillColor=none;" vertex="1" parent="1">
          <mxGeometry x="-2057" y="675.58" width="140" height="30" as="geometry" />
        </mxCell>
      </root>
    </mxGraphModel>
  </diagram>
</mxfile>
